<svg version="1.2" xmlns="http://www.w3.org/2000/svg" viewBox="0 0 106 32" width="106" height="32">
	<title>Logo wrap</title>
	<style>
		.s0 { fill: #c6ff24 } 
		.s1 { fill: #ffffff } 
	</style>
	<g>
		<path class="s0" d="m17.4 8.5c2.8 2.7 3.1 4.2 3.4 5 2.5 7.1-3.1 14.8-10.6 14.5-1-0.1-2-0.1-2.9-0.5-0.5-0.2-0.8 0-1.2 0.3q-2.1 2-4.3 4-0.1 0.1-0.3 0.2c1.4-2.9 2.9-5.8 4.8-8.6q-0.9 2.1-1.7 4.2c4.4-4 8.7-8.2 13.1-12.2-0.2-0.2-0.4-0.1-0.5-0.1q-1.6 0-3.2 0c-0.4 0-0.5-0.1-0.4-0.5 0.7-2.1 1.4-4.3 2.1-6.4 0.4-1.3 0.8-2.5 1.2-3.7 0.1-0.2 0.2-0.4 0.1-0.7-3.9 4.3-7.8 8.5-11.7 12.9h3.2c-0.5 1.3-1.2 2.5-1.8 3.7-0.8 1.5-1.7 3-2.6 4.5-0.1 0.3-0.2 0.6-0.6 0.2-4.7-4.5-4.7-12.5 0.2-16.8 2.7-2.4 5.9-3.2 9.5-2.6 0.4 0.1 0.6 0 0.8-0.3 1.8-1.8 3.6-3.6 5.5-5.6-0.6 1.9-1.6 6.8-2.1 8.5z"/>
	</g>
	<path class="s1" d="m101 24c-2.7 0-4-1.3-4-3.8v-4.6h-2.8v-1.9h1.8c0.5 0 0.6 0.1 0.9 0.5l0.4 0.4 0.8-0.6-0.7-0.9c-0.3-0.4-0.4-0.6-0.4-1.2v-1.9h2v3.7h6.1v1.9h-6.1v4.6c0 1.3 0.6 1.9 2 1.9h0.1c1.3 0 2-0.6 2-1.9v-1.6h2v1.6c0 2.5-1.3 3.8-4 3.8z"/>
	<path class="s1" d="m87 23.8v-1.9h3.2v-5.6c0-0.5-0.1-0.7-0.7-0.7h-2.5v-1.9h3.1c1.5 0 2.1 0.7 2.1 2.1v6.1h2.8v1.9zm2.5-11.9v-2.7h2.8v2.7z"/>
	<path class="s1" d="m80 9.2v14.6h-2v-1c0-0.4 0.1-0.6 0.5-0.9l0.5-0.4-0.6-0.8-2.1 1.6c-1.4 1.1-2.4 1.7-3.6 1.7-1.7 0-2.9-1.1-2.9-3.1v-2.7c0-2.9 1.7-4.7 5-4.7h0.5c1.3 0 2.4 0.4 2.7 0.5v-4.8zm-5.1 6.2c-2.1 0-3.1 1-3.1 2.8v2.3c0 1 0.6 1.6 1.5 1.6 0.8 0 1.4-0.4 2.4-1.2l2.4-1.9v-3.1c-0.4-0.1-1.5-0.5-2.7-0.5z"/>
	<path class="s1" d="m57.7 23.8v-10.1h2v1.1c0 0.4-0.1 0.6-0.4 0.9l-0.5 0.4 0.6 0.8 2.1-1.7c1.4-1.1 2.4-1.6 3.6-1.6 1.7 0 2.9 1.1 2.9 3v7.2h-2.1v-6.8c0-1-0.5-1.6-1.4-1.6-0.9 0-1.4 0.5-2.4 1.2l-2.4 1.9v5.3z"/>
	<path class="s1" d="m50.2 24c-3.4 0-5-1.7-5-4.7v-1c0-3.1 1.6-4.8 5.1-4.8h0.7c3.4 0 5 1.7 5 4.8v1.1h-8.8c0.1 1.8 1 2.8 3 2.8h0.8c1.9 0 2.4-0.5 2.8-1.3h1.9v0.7c-0.7 1.5-1.9 2.4-4.7 2.4zm3.7-6.1c-0.1-1.8-0.9-2.6-2.9-2.6h-0.8c-1.8 0-2.8 0.8-3 2.6z"/>
	<path class="s1" d="m37.4 24c-3.5 0-5-1.2-5.4-3.6v-0.8h2c0.2 1.7 0.9 2.5 3.3 2.5h1.1c2.5 0 3.3-0.8 3.3-2.2 0-1.1-0.5-1.6-1.8-1.9l-4.3-1c-2.4-0.6-3.4-1.7-3.4-3.9 0-2.6 1.6-4.1 5.1-4.1h1c3.2 0 4.8 1.2 5.1 3.5v0.7h-2c-0.1-1.5-0.9-2.3-3-2.3h-1.2c-2.2 0-3 0.8-3 2.1 0 1.1 0.5 1.7 1.8 2l4.3 1c2.4 0.5 3.4 1.6 3.4 3.8 0 2.5-1.6 4.2-5.3 4.2z"/>
</svg>